<svg width="33" height="33" viewBox="0 0 33 33" fill="none" xmlns="http://www.w3.org/2000/svg">
<path d="M27.8647 23.0625H25.7285V20.9434C25.7303 20.8635 25.7162 20.7841 25.687 20.7097C25.6578 20.6354 25.6141 20.5676 25.5584 20.5103C25.5027 20.453 25.4362 20.4074 25.3627 20.3762C25.2892 20.3449 25.2102 20.3285 25.1303 20.3281H23.2162C23.0514 20.3277 22.8928 20.3918 22.7747 20.5068C22.6565 20.6218 22.588 20.7785 22.584 20.9434V23.0625H20.4135C20.2486 23.0621 20.0901 23.1262 19.9719 23.2412C19.8538 23.3562 19.7853 23.5129 19.7812 23.6777V25.5918C19.7853 25.7566 19.8538 25.9133 19.9719 26.0283C20.0901 26.1433 20.2486 26.2075 20.4135 26.207H22.584V28.3945C22.588 28.5594 22.6565 28.7161 22.7747 28.8311C22.8928 28.9461 23.0514 29.0102 23.2162 29.0098H25.1303C25.2102 29.0093 25.2892 28.993 25.3627 28.9617C25.4362 28.9305 25.5027 28.8848 25.5584 28.8276C25.6141 28.7703 25.6578 28.7025 25.687 28.6282C25.7162 28.5538 25.7303 28.4744 25.7285 28.3945V26.207H27.8647C27.9446 26.2066 28.0236 26.1903 28.0971 26.159C28.1706 26.1277 28.2371 26.0821 28.2928 26.0248C28.3485 25.9676 28.3922 25.8998 28.4214 25.8254C28.4506 25.7511 28.4647 25.6717 28.4629 25.5918V23.6777C28.4647 23.5979 28.4506 23.5185 28.4214 23.4441C28.3922 23.3698 28.3485 23.302 28.2928 23.2447C28.2371 23.1874 28.1706 23.1418 28.0971 23.1105C28.0236 23.0793 27.9446 23.0629 27.8647 23.0625ZM27.5059 25.25H25.4037C25.2389 25.2496 25.0803 25.3137 24.9622 25.4287C24.844 25.5437 24.7755 25.7004 24.7715 25.8652V28.0527H23.541V25.8652C23.5428 25.7854 23.5287 25.706 23.4995 25.6316C23.4703 25.5573 23.4266 25.4895 23.3709 25.4322C23.3152 25.3749 23.2487 25.3293 23.1752 25.298C23.1017 25.2668 23.0227 25.2504 22.9428 25.25H20.7383V24.0195H22.9428C23.0227 24.0191 23.1017 24.0028 23.1752 23.9715C23.2487 23.9402 23.3152 23.8946 23.3709 23.8373C23.4266 23.7801 23.4703 23.7123 23.4995 23.6379C23.5287 23.5636 23.5428 23.4842 23.541 23.4043V21.2852H24.7715V23.4043C24.7755 23.5691 24.844 23.7258 24.9622 23.8408C25.0803 23.9558 25.2389 24.02 25.4037 24.0195H27.5059V25.25Z" fill="#66CCCC"/>
<path d="M24.2813 16.3057C22.9595 16.3061 21.6574 16.6262 20.4861 17.2389C19.3148 17.8515 18.3091 18.7384 17.5548 19.8239C17.4259 19.7843 17.304 19.7457 17.189 19.7082L16.7246 18.3909C18.1601 17.3155 18.5533 15.6361 18.6606 14.8226C19.626 14.5607 20.5126 13.4264 20.8678 11.9233C21.0592 11.1103 20.7789 10.3533 20.1701 10.0396C20.0013 9.95278 19.8143 9.90741 19.6246 9.90728C19.656 9.67137 19.6888 9.38283 19.7228 9.02852C19.8022 8.19953 19.8527 7.3622 19.8527 7.15001C19.8527 6.99962 19.8557 6.84458 19.8588 6.68045C19.8842 5.37143 19.9157 3.74243 18.4718 2.282C17.176 0.971416 15.3415 0.248926 13.4394 0.301494C11.5446 0.353311 9.7677 1.16187 8.5643 2.51982C8.52738 2.56161 8.48988 2.60368 8.45178 2.64601C7.72594 3.45703 6.73179 4.5678 6.80315 7.4123C6.80999 7.69073 7.07659 8.96673 7.3527 9.93921C7.19174 9.95519 7.03566 10.0034 6.89373 10.081C6.30933 10.3968 6.04136 11.1371 6.22688 11.9233C6.58235 13.4291 7.47178 14.5647 8.43934 14.8238C8.555 15.6215 8.95989 17.2843 10.3588 18.3607L9.74609 19.6207C9.30859 19.7578 8.81552 19.8936 8.30658 20.0362C5.0172 20.9582 0.503906 22.2207 0.503906 26.3225V30.6112C0.503906 31.6244 1.04579 32.7012 2.01848 32.7012H24.31C24.3144 32.7012 24.3187 32.7006 24.3231 32.7005C26.4926 32.688 28.5688 31.816 30.0965 30.2756C31.6243 28.7351 32.479 26.6518 32.4735 24.4823C32.468 22.3127 31.6026 20.2338 30.067 18.7012C28.5314 17.1685 26.4509 16.3071 24.2813 16.3057ZM9.16504 3.28401C9.20414 3.24035 9.24272 3.19706 9.28077 3.15413C10.3092 1.99353 11.8345 1.30234 13.4657 1.25777C15.1047 1.21225 16.6811 1.83144 17.7914 2.95452C18.9512 4.1275 18.9251 5.4737 18.9021 6.66144C18.8989 6.83043 18.8958 6.99005 18.8958 7.1496C18.8958 7.25104 18.8855 7.46152 18.868 7.72928C18.6366 6.86912 18.3131 6.03835 17.8676 5.55259L17.8322 5.48177C17.7918 5.40092 17.7293 5.33318 17.652 5.28637C17.5747 5.23956 17.4857 5.2156 17.3953 5.21727C17.305 5.21894 17.2169 5.24616 17.1414 5.29579C17.0659 5.34541 17.0059 5.41542 16.9685 5.49769C16.1975 7.19362 15.4337 7.12533 14.1684 7.01247C14.0215 6.99934 13.8721 6.98601 13.7202 6.97549C13.2387 6.94131 13.0645 7.22267 13.012 7.34463C12.856 7.70693 13.0727 8.09815 13.4696 8.56204C12.2063 8.41124 11.8862 7.48729 11.5977 6.65386C11.3975 6.0754 11.1706 5.4197 10.5108 5.4197C10.1928 5.41347 9.87725 5.47534 9.58521 5.60116C9.29317 5.72698 9.03143 5.91383 8.81757 6.14916C8.32723 6.67553 8.05092 7.42597 7.89711 8.16139C7.83485 7.90681 7.78918 7.64846 7.76039 7.38797C7.69798 4.9232 8.47734 4.0523 9.16504 3.28401ZM9.35282 14.3817C9.34705 14.2585 9.29419 14.1421 9.20516 14.0567C9.11613 13.9712 8.99771 13.9232 8.87431 13.9225C8.86747 13.9225 8.86063 13.9225 8.85346 13.9225C8.15264 13.9225 7.41265 12.7793 7.15814 11.7032C7.06073 11.2903 7.18863 11.0092 7.34866 10.9226C7.52961 10.825 7.72259 10.9969 7.7971 11.0755C7.85965 11.1413 7.93965 11.188 8.02776 11.2101C8.11587 11.2322 8.20844 11.2287 8.29466 11.2002C8.38088 11.1716 8.45718 11.119 8.51465 11.0487C8.57211 10.9784 8.60837 10.8931 8.61919 10.8029C8.66633 10.7208 8.68796 10.6266 8.68133 10.5322C8.63047 9.79818 8.68181 7.69709 9.51805 6.80096C9.63631 6.66976 9.78044 6.56443 9.94138 6.49161C10.1023 6.41879 10.2766 6.38005 10.4532 6.37782C10.5251 6.48166 10.6211 6.75886 10.6931 6.96701C11.0477 7.99158 11.7078 9.89826 14.633 9.48092C14.7227 9.46813 14.8069 9.43014 14.8759 9.37138C14.9448 9.31261 14.9957 9.23548 15.0225 9.14896C15.0493 9.06244 15.0511 8.97007 15.0275 8.88261C15.0039 8.79514 14.9559 8.71617 14.8892 8.65487C14.6573 8.4416 14.4371 8.21586 14.2296 7.97866C15.3546 8.07635 16.5022 8.11312 17.4506 6.62077C18.05 7.74487 18.362 9.98015 18.4385 10.8678C18.4487 10.9871 18.5033 11.0982 18.5915 11.1792C18.6797 11.2602 18.795 11.3052 18.9147 11.3053C18.9284 11.3053 18.9421 11.3047 18.9562 11.3035C19.0429 11.296 19.1259 11.2651 19.1963 11.214C19.2667 11.1628 19.3218 11.0935 19.3557 11.0133C19.4502 10.92 19.5943 10.8192 19.7317 10.8898C19.9072 10.9803 20.0338 11.2888 19.9363 11.7033C19.6819 12.7795 18.942 13.9227 18.241 13.9227H18.229C18.1361 13.9212 18.0448 13.9466 17.966 13.9957C17.8991 14.0374 17.8436 14.095 17.8045 14.1634C17.7653 14.2317 17.7437 14.3087 17.7415 14.3875C17.721 14.7788 17.5357 16.7796 15.9053 17.7929C15.9027 17.7944 15.9002 17.7962 15.8976 17.7979C15.2628 18.1895 14.4721 18.3881 13.5472 18.3881C12.6249 18.3881 11.8359 18.185 11.2018 17.7841C9.59461 16.7693 9.37962 14.7719 9.35282 14.3817ZM10.5171 20.2236L11.1801 18.8602C11.8668 19.1819 12.6603 19.345 13.5473 19.345C14.4215 19.345 15.2044 19.1901 15.8838 18.8848L16.3641 20.2472C16.3881 20.3154 16.4273 20.3773 16.4788 20.4283C16.5302 20.4792 16.5925 20.5178 16.661 20.5411C16.7802 20.5818 16.9064 20.6233 17.0396 20.6656C16.8051 21.1059 16.6116 21.5669 16.4614 22.0426C16.0186 22.5671 15.0893 23.3693 13.5473 23.3693C13.0269 23.3749 12.5112 23.2708 12.0339 23.0637C11.5565 22.8566 11.1281 22.5512 10.7767 22.1674C10.2719 21.626 9.98624 21.0224 9.88992 20.578C10.0073 20.5419 10.1223 20.5059 10.2347 20.4693C10.2959 20.4495 10.3524 20.4174 10.4009 20.3752C10.4494 20.333 10.4889 20.2814 10.5171 20.2236ZM1.46094 30.6112V26.3225C1.46094 22.9464 5.40356 21.8438 8.56471 20.9578C8.69849 20.9202 8.83459 20.8833 8.96475 20.8466C9.31099 22.3011 10.8707 24.326 13.5448 24.326C14.4612 24.3376 15.361 24.0812 16.1337 23.5884C15.9509 25.2231 16.264 26.8749 17.0322 28.3294C17.8004 29.7838 18.9882 30.9736 20.4414 31.7441H2.01848C1.71387 31.7441 1.46094 31.1351 1.46094 30.6112ZM24.2813 31.7441C22.8493 31.7441 21.4494 31.3195 20.2587 30.5238C19.068 29.7282 18.14 28.5974 17.5919 27.2743C17.0439 25.9513 16.9005 24.4955 17.1799 23.0909C17.4593 21.6864 18.1489 20.3962 19.1615 19.3836C20.1741 18.371 21.4643 17.6814 22.8688 17.402C24.2734 17.1226 25.7292 17.266 27.0523 17.814C28.3753 18.362 29.5061 19.2901 30.3017 20.4808C31.0974 21.6715 31.522 23.0714 31.522 24.5034C31.5199 26.4231 30.7564 28.2636 29.3989 29.621C28.0415 30.9785 26.201 31.742 24.2813 31.7441Z" fill="#66CCCC"/>
</svg>
